<svg xmlns="http://www.w3.org/2000/svg" width="60" height="60">
    <path fill="#F5F5F5" fill-rule="evenodd" stroke="#2D2D30" stroke-width="2" d="M30 5c13.807 0 25 11.193 25 25S43.807 55 30 55 5 43.807 5 30 16.193 5 30 5z"/>
    <path fill="#2D2D30" fill-rule="evenodd" d="M38.4 28.096c-.28 0-.84 0-1.12-.281l-5.88-5.9v20.228c0 .843-.56 1.405-1.4 1.405-.839 0-1.4-.562-1.4-1.405V21.915l-5.88 5.9c-.56.562-1.4.562-1.96 0a1.362 1.362 0 0 1 0-1.967l8.4-8.428c.56-.562 1.4-.562 1.96 0l8.401 8.428a1.363 1.363 0 0 1 0 1.967c-.281.281-.841.281-1.121.281z"/>
</svg>
